<mxfile host="app.diagrams.net" modified="2021-11-21T23:16:56.848Z" agent="5.0 (Windows NT 10.0; Win64; x64) AppleWebKit/537.36 (KHTML, like Gecko) Chrome/94.0.4606.81 Safari/537.36 OPR/80.0.4170.91" etag="teCj5TIpmRdgYdsxCKWh" version="15.8.3" type="github">
  <diagram id="xSYIbnSO49mtRDA4TJkt" name="Page-1">
    <mxGraphModel dx="1510" dy="2746" grid="1" gridSize="10" guides="1" tooltips="1" connect="1" arrows="1" fold="1" page="1" pageScale="1" pageWidth="827" pageHeight="1169" math="0" shadow="0">
      <root>
        <mxCell id="0" />
        <mxCell id="1" parent="0" />
        <mxCell id="hyJ4t73hSkluDHfKcx0_-24" style="edgeStyle=orthogonalEdgeStyle;rounded=0;orthogonalLoop=1;jettySize=auto;html=1;entryX=0.469;entryY=0.182;entryDx=0;entryDy=0;entryPerimeter=0;" edge="1" parent="1" source="hyJ4t73hSkluDHfKcx0_-1" target="hyJ4t73hSkluDHfKcx0_-3">
          <mxGeometry relative="1" as="geometry" />
        </mxCell>
        <mxCell id="hyJ4t73hSkluDHfKcx0_-1" value="Start" style="strokeWidth=2;html=1;shape=mxgraph.flowchart.start_1;whiteSpace=wrap;fillColor=#d5e8d4;strokeColor=#82b366;" vertex="1" parent="1">
          <mxGeometry x="350" y="-1560" width="100" height="60" as="geometry" />
        </mxCell>
        <mxCell id="hyJ4t73hSkluDHfKcx0_-21" style="edgeStyle=orthogonalEdgeStyle;rounded=0;orthogonalLoop=1;jettySize=auto;html=1;entryX=0.5;entryY=0;entryDx=0;entryDy=0;" edge="1" parent="1" source="hyJ4t73hSkluDHfKcx0_-3" target="hyJ4t73hSkluDHfKcx0_-4">
          <mxGeometry relative="1" as="geometry" />
        </mxCell>
        <mxCell id="hyJ4t73hSkluDHfKcx0_-3" value="year" style="html=1;strokeWidth=2;shape=manualInput;whiteSpace=wrap;rounded=1;size=26;arcSize=11;fillColor=#FFFFFF;" vertex="1" parent="1">
          <mxGeometry x="350" y="-1460" width="100" height="60" as="geometry" />
        </mxCell>
        <mxCell id="hyJ4t73hSkluDHfKcx0_-20" style="edgeStyle=orthogonalEdgeStyle;rounded=0;orthogonalLoop=1;jettySize=auto;html=1;entryX=0.5;entryY=0;entryDx=0;entryDy=0;entryPerimeter=0;" edge="1" parent="1" source="hyJ4t73hSkluDHfKcx0_-4" target="hyJ4t73hSkluDHfKcx0_-7">
          <mxGeometry relative="1" as="geometry" />
        </mxCell>
        <mxCell id="hyJ4t73hSkluDHfKcx0_-4" value="let moduleBy4=&lt;br&gt;year%4&lt;br&gt;let moduleBy100=&lt;br&gt;year%100&lt;br&gt;let moduleBy400=&lt;br&gt;year%400" style="shape=parallelogram;html=1;strokeWidth=2;perimeter=parallelogramPerimeter;whiteSpace=wrap;rounded=1;arcSize=12;size=0.23;fillColor=#FFFFFF;" vertex="1" parent="1">
          <mxGeometry x="280" y="-1350" width="230" height="110" as="geometry" />
        </mxCell>
        <mxCell id="hyJ4t73hSkluDHfKcx0_-36" style="edgeStyle=orthogonalEdgeStyle;rounded=0;orthogonalLoop=1;jettySize=auto;html=1;" edge="1" parent="1" source="hyJ4t73hSkluDHfKcx0_-7" target="hyJ4t73hSkluDHfKcx0_-34">
          <mxGeometry relative="1" as="geometry" />
        </mxCell>
        <mxCell id="hyJ4t73hSkluDHfKcx0_-37" style="edgeStyle=orthogonalEdgeStyle;rounded=0;orthogonalLoop=1;jettySize=auto;html=1;entryX=0.5;entryY=0;entryDx=0;entryDy=0;entryPerimeter=0;" edge="1" parent="1" source="hyJ4t73hSkluDHfKcx0_-7" target="hyJ4t73hSkluDHfKcx0_-12">
          <mxGeometry relative="1" as="geometry" />
        </mxCell>
        <mxCell id="hyJ4t73hSkluDHfKcx0_-7" value="muduleBy400===0" style="strokeWidth=2;html=1;shape=mxgraph.flowchart.decision;whiteSpace=wrap;fillColor=#FFFFFF;" vertex="1" parent="1">
          <mxGeometry x="275" y="-1190" width="240" height="100" as="geometry" />
        </mxCell>
        <mxCell id="hyJ4t73hSkluDHfKcx0_-9" value="Yes" style="text;html=1;align=center;verticalAlign=middle;resizable=0;points=[];autosize=1;strokeColor=none;fillColor=none;" vertex="1" parent="1">
          <mxGeometry x="475" y="-1090" width="40" height="20" as="geometry" />
        </mxCell>
        <mxCell id="hyJ4t73hSkluDHfKcx0_-10" value="No" style="text;html=1;align=center;verticalAlign=middle;resizable=0;points=[];autosize=1;strokeColor=none;fillColor=none;" vertex="1" parent="1">
          <mxGeometry x="260" y="-1090" width="30" height="20" as="geometry" />
        </mxCell>
        <mxCell id="hyJ4t73hSkluDHfKcx0_-40" style="edgeStyle=orthogonalEdgeStyle;rounded=0;orthogonalLoop=1;jettySize=auto;html=1;" edge="1" parent="1" source="hyJ4t73hSkluDHfKcx0_-12" target="hyJ4t73hSkluDHfKcx0_-33">
          <mxGeometry relative="1" as="geometry" />
        </mxCell>
        <mxCell id="hyJ4t73hSkluDHfKcx0_-41" style="edgeStyle=orthogonalEdgeStyle;rounded=0;orthogonalLoop=1;jettySize=auto;html=1;" edge="1" parent="1" source="hyJ4t73hSkluDHfKcx0_-12" target="hyJ4t73hSkluDHfKcx0_-16">
          <mxGeometry relative="1" as="geometry" />
        </mxCell>
        <mxCell id="hyJ4t73hSkluDHfKcx0_-12" value="moduleBy100===0" style="strokeWidth=2;html=1;shape=mxgraph.flowchart.decision;whiteSpace=wrap;fillColor=#FFFFFF;" vertex="1" parent="1">
          <mxGeometry x="150" y="-1020" width="250" height="100" as="geometry" />
        </mxCell>
        <mxCell id="hyJ4t73hSkluDHfKcx0_-45" style="edgeStyle=orthogonalEdgeStyle;rounded=0;orthogonalLoop=1;jettySize=auto;html=1;entryX=0.594;entryY=0.006;entryDx=0;entryDy=0;entryPerimeter=0;" edge="1" parent="1" source="hyJ4t73hSkluDHfKcx0_-16" target="hyJ4t73hSkluDHfKcx0_-43">
          <mxGeometry relative="1" as="geometry" />
        </mxCell>
        <mxCell id="hyJ4t73hSkluDHfKcx0_-46" style="edgeStyle=orthogonalEdgeStyle;rounded=0;orthogonalLoop=1;jettySize=auto;html=1;" edge="1" parent="1" source="hyJ4t73hSkluDHfKcx0_-16" target="hyJ4t73hSkluDHfKcx0_-44">
          <mxGeometry relative="1" as="geometry" />
        </mxCell>
        <mxCell id="hyJ4t73hSkluDHfKcx0_-16" value="moduleBy4===0" style="strokeWidth=2;html=1;shape=mxgraph.flowchart.decision;whiteSpace=wrap;fillColor=#FFFFFF;" vertex="1" parent="1">
          <mxGeometry x="-10" y="-860" width="250" height="100" as="geometry" />
        </mxCell>
        <mxCell id="hyJ4t73hSkluDHfKcx0_-52" style="edgeStyle=orthogonalEdgeStyle;rounded=0;orthogonalLoop=1;jettySize=auto;html=1;entryX=0.89;entryY=0.11;entryDx=0;entryDy=0;entryPerimeter=0;" edge="1" parent="1" source="hyJ4t73hSkluDHfKcx0_-33" target="hyJ4t73hSkluDHfKcx0_-50">
          <mxGeometry relative="1" as="geometry">
            <Array as="points">
              <mxPoint x="310" y="-830" />
              <mxPoint x="310" y="-533" />
            </Array>
          </mxGeometry>
        </mxCell>
        <mxCell id="hyJ4t73hSkluDHfKcx0_-33" value="Not Leap" style="strokeWidth=2;html=1;shape=mxgraph.flowchart.display;whiteSpace=wrap;fillColor=#FFFFFF;" vertex="1" parent="1">
          <mxGeometry x="345" y="-860" width="100" height="60" as="geometry" />
        </mxCell>
        <mxCell id="hyJ4t73hSkluDHfKcx0_-51" style="edgeStyle=orthogonalEdgeStyle;rounded=0;orthogonalLoop=1;jettySize=auto;html=1;entryX=1;entryY=0.667;entryDx=0;entryDy=0;entryPerimeter=0;" edge="1" parent="1" source="hyJ4t73hSkluDHfKcx0_-34" target="hyJ4t73hSkluDHfKcx0_-50">
          <mxGeometry relative="1" as="geometry">
            <Array as="points">
              <mxPoint x="525" y="-760" />
              <mxPoint x="388" y="-760" />
              <mxPoint x="388" y="-500" />
            </Array>
          </mxGeometry>
        </mxCell>
        <mxCell id="hyJ4t73hSkluDHfKcx0_-34" value="&amp;nbsp;Leap" style="strokeWidth=2;html=1;shape=mxgraph.flowchart.display;whiteSpace=wrap;fillColor=#FFFFFF;" vertex="1" parent="1">
          <mxGeometry x="475" y="-1020" width="100" height="60" as="geometry" />
        </mxCell>
        <mxCell id="hyJ4t73hSkluDHfKcx0_-38" value="No" style="text;html=1;align=center;verticalAlign=middle;resizable=0;points=[];autosize=1;strokeColor=none;fillColor=none;" vertex="1" parent="1">
          <mxGeometry x="135" y="-910" width="30" height="20" as="geometry" />
        </mxCell>
        <mxCell id="hyJ4t73hSkluDHfKcx0_-39" value="Yes" style="text;html=1;align=center;verticalAlign=middle;resizable=0;points=[];autosize=1;strokeColor=none;fillColor=none;" vertex="1" parent="1">
          <mxGeometry x="350" y="-910" width="40" height="20" as="geometry" />
        </mxCell>
        <mxCell id="hyJ4t73hSkluDHfKcx0_-54" style="edgeStyle=orthogonalEdgeStyle;rounded=0;orthogonalLoop=1;jettySize=auto;html=1;entryX=0;entryY=0.5;entryDx=0;entryDy=0;entryPerimeter=0;" edge="1" parent="1" source="hyJ4t73hSkluDHfKcx0_-43" target="hyJ4t73hSkluDHfKcx0_-50">
          <mxGeometry relative="1" as="geometry" />
        </mxCell>
        <mxCell id="hyJ4t73hSkluDHfKcx0_-43" value="Not Leap" style="strokeWidth=2;html=1;shape=mxgraph.flowchart.display;whiteSpace=wrap;fillColor=#FFFFFF;" vertex="1" parent="1">
          <mxGeometry x="-50" y="-690" width="100" height="60" as="geometry" />
        </mxCell>
        <mxCell id="hyJ4t73hSkluDHfKcx0_-53" style="edgeStyle=orthogonalEdgeStyle;rounded=0;orthogonalLoop=1;jettySize=auto;html=1;" edge="1" parent="1" source="hyJ4t73hSkluDHfKcx0_-44" target="hyJ4t73hSkluDHfKcx0_-50">
          <mxGeometry relative="1" as="geometry" />
        </mxCell>
        <mxCell id="hyJ4t73hSkluDHfKcx0_-44" value="Leap" style="strokeWidth=2;html=1;shape=mxgraph.flowchart.display;whiteSpace=wrap;fillColor=#FFFFFF;" vertex="1" parent="1">
          <mxGeometry x="190" y="-690" width="100" height="60" as="geometry" />
        </mxCell>
        <mxCell id="hyJ4t73hSkluDHfKcx0_-47" value="No" style="text;html=1;align=center;verticalAlign=middle;resizable=0;points=[];autosize=1;strokeColor=none;fillColor=none;" vertex="1" parent="1">
          <mxGeometry x="15" y="-750" width="30" height="20" as="geometry" />
        </mxCell>
        <mxCell id="hyJ4t73hSkluDHfKcx0_-48" value="Yes" style="text;html=1;align=center;verticalAlign=middle;resizable=0;points=[];autosize=1;strokeColor=none;fillColor=none;" vertex="1" parent="1">
          <mxGeometry x="190" y="-750" width="40" height="20" as="geometry" />
        </mxCell>
        <mxCell id="hyJ4t73hSkluDHfKcx0_-50" value="End" style="strokeWidth=2;html=1;shape=mxgraph.flowchart.terminator;whiteSpace=wrap;fillColor=#FFFFFF;" vertex="1" parent="1">
          <mxGeometry x="200" y="-540" width="100" height="60" as="geometry" />
        </mxCell>
      </root>
    </mxGraphModel>
  </diagram>
</mxfile>
